<svg style="display:none">
	<!-- <symbol id="Logo" viewBox="0 0 126 16" fill="none" xmlns="http://www.w3.org/2000/svg"><path d="M0.459999 0.999999H10.02V2.98H2.84V6.92H8.22V8.9H2.84V15H0.459999V0.999999Z" fill="#161616"/><path d="M23.6177 2.98H22.8977L18.6977 15H16.2577L21.2177 0.999999H25.2577L30.2377 15H27.7977L23.6177 2.98ZM18.9777 9.62H27.1377V11.58H18.9777V9.62Z" fill="#161616"/><path d="M40.435 11.16C40.515 11.5333 40.6683 11.8733 40.895 12.18C41.135 12.4733 41.4483 12.7067 41.835 12.88C42.235 13.0533 42.7083 13.14 43.255 13.14C44.095 13.14 44.7217 12.9467 45.135 12.56C45.5483 12.16 45.755 11.6933 45.755 11.16C45.755 10.72 45.6217 10.3533 45.355 10.06C45.1017 9.76667 44.7417 9.52 44.275 9.32C43.8083 9.10667 43.275 8.90667 42.675 8.72C42.1283 8.56 41.6017 8.39333 41.095 8.22C40.5883 8.03333 40.1283 7.80667 39.715 7.54C39.315 7.26 38.995 6.90667 38.755 6.48C38.515 6.04 38.4017 5.49333 38.415 4.84C38.415 3.98667 38.615 3.26667 39.015 2.68C39.415 2.08 39.975 1.62667 40.695 1.32C41.415 1.01333 42.2417 0.86 43.175 0.86C43.9617 0.86 44.6683 0.973333 45.295 1.2C45.935 1.41333 46.475 1.73333 46.915 2.16C47.355 2.57333 47.6817 3.08667 47.895 3.7L45.715 4.42C45.635 4.12667 45.475 3.86667 45.235 3.64C44.995 3.4 44.695 3.21333 44.335 3.08C43.9883 2.94667 43.6083 2.87333 43.195 2.86C42.7417 2.84667 42.335 2.91333 41.975 3.06C41.6283 3.20667 41.3483 3.42 41.135 3.7C40.9217 3.96667 40.815 4.28 40.815 4.64C40.815 5.05333 40.935 5.38 41.175 5.62C41.415 5.84667 41.7283 6.04 42.115 6.2C42.515 6.34667 42.955 6.5 43.435 6.66C43.995 6.82 44.5483 7.00667 45.095 7.22C45.655 7.42 46.1617 7.68 46.615 8C47.0817 8.30667 47.455 8.7 47.735 9.18C48.015 9.66 48.155 10.26 48.155 10.98C48.155 11.7533 47.975 12.4533 47.615 13.08C47.2683 13.7067 46.735 14.2067 46.015 14.58C45.295 14.9533 44.4017 15.14 43.335 15.14C42.4683 15.14 41.675 15.0133 40.955 14.76C40.2483 14.4933 39.655 14.12 39.175 13.64C38.7083 13.1467 38.4017 12.5667 38.255 11.9L40.435 11.16Z" fill="#161616"/><path d="M57.4952 0.999999H59.8752V6.92H66.4752V0.999999H68.8352V15H66.4752V8.9H59.8752V15H57.4952V0.999999Z" fill="#161616"/><path d="M78.7725 0.999999H81.1525V15H78.7725V0.999999Z" fill="#161616"/><path d="M97.485 15.14C96.4983 15.14 95.5717 14.9667 94.705 14.62C93.8383 14.2733 93.0783 13.7867 92.425 13.16C91.785 12.52 91.2783 11.7667 90.905 10.9C90.545 10.02 90.365 9.05333 90.365 8C90.365 6.96 90.545 6.00667 90.905 5.14C91.2783 4.26 91.785 3.5 92.425 2.86C93.0783 2.22 93.8383 1.72667 94.705 1.38C95.5717 1.03333 96.4983 0.86 97.485 0.86C98.4717 0.86 99.3917 1.03333 100.245 1.38C101.112 1.72667 101.865 2.22 102.505 2.86C103.158 3.5 103.665 4.26 104.025 5.14C104.398 6.00667 104.585 6.96 104.585 8C104.585 9.05333 104.398 10.02 104.025 10.9C103.665 11.7667 103.158 12.52 102.505 13.16C101.865 13.7867 101.112 14.2733 100.245 14.62C99.3917 14.9667 98.4717 15.14 97.485 15.14ZM97.485 13.12C98.3917 13.12 99.1983 12.9133 99.905 12.5C100.612 12.0733 101.165 11.48 101.565 10.72C101.965 9.94667 102.165 9.04 102.165 8C102.165 6.94667 101.965 6.04 101.565 5.28C101.165 4.52 100.612 3.93333 99.905 3.52C99.1983 3.09333 98.3917 2.88 97.485 2.88C96.5783 2.88 95.7717 3.09333 95.065 3.52C94.3583 3.93333 93.7983 4.52 93.385 5.28C92.985 6.04 92.785 6.94667 92.785 8C92.785 9.04 92.985 9.94667 93.385 10.72C93.7983 11.48 94.3583 12.0733 95.065 12.5C95.7717 12.9133 96.5783 13.12 97.485 13.12Z" fill="#161616"/><path d="M125.089 0.999999V15H122.669L116.149 4.74V15H113.769V0.999999H116.209L122.729 11.22V0.999999H125.089Z" fill="#161616"/></symbol> -->
	<symbol id="ChevronLeft" xmlns="http://www.w3.org/2000/svg" fill="none" viewBox="0 0 24 24" stroke="currentColor"><path stroke-linecap="round" stroke-linejoin="round" d="M15.75 19.5L8.25 12l7.5-7.5" /></symbol>
	<symbol id="ChevronRight" xmlns="http://www.w3.org/2000/svg" fill="none" viewBox="0 0 24 24" stroke="currentColor"><path stroke-linecap="round" stroke-linejoin="round" d="M8.25 4.5l7.5 7.5-7.5 7.5" /></symbol>
	<symbol id="ChevronUp" xmlns="http://www.w3.org/2000/svg" fill="none" viewBox="0 0 24 24" stroke="currentColor"><path stroke-linecap="round" stroke-linejoin="round" d="M4.5 15.75l7.5-7.5 7.5 7.5" /></symbol>	
	<symbol id="ChevronDown" xmlns="http://www.w3.org/2000/svg" fill="none" viewBox="0 0 24 24" stroke="currentColor"><path stroke-linecap="round" stroke-linejoin="round" d="M19.5 8.25l-7.5 7.5-7.5-7.5" /></symbol>
	<symbol id="QuestionMarkCircle" xmlns="http://www.w3.org/2000/svg" fill="none" viewBox="0 0 24 24" stroke="currentColor"><path stroke-linecap="round" stroke-linejoin="round" d="M9.879 7.519c1.171-1.025 3.071-1.025 4.242 0 1.172 1.025 1.172 2.687 0 3.712-.203.179-.43.326-.67.442-.745.361-1.45.999-1.45 1.827v.75M21 12a9 9 0 11-18 0 9 9 0 0118 0zm-9 5.25h.008v.008H12v-.008z" /></symbol>
	<symbol id="User" width="20" height="20" viewBox="0 0 20 20" fill="none" xmlns="http://www.w3.org/2000/svg"><path fill-rule="evenodd" clip-rule="evenodd" d="M10.0003 3.33366C8.61961 3.33366 7.50033 4.45295 7.50033 5.83366C7.50033 7.21437 8.61961 8.33366 10.0003 8.33366C11.381 8.33366 12.5003 7.21437 12.5003 5.83366C12.5003 4.45295 11.381 3.33366 10.0003 3.33366ZM5.83366 5.83366C5.83366 3.53247 7.69914 1.66699 10.0003 1.66699C12.3015 1.66699 14.167 3.53247 14.167 5.83366C14.167 8.13484 12.3015 10.0003 10.0003 10.0003C7.69914 10.0003 5.83366 8.13484 5.83366 5.83366ZM8.33366 13.3337C7.67062 13.3337 7.03473 13.597 6.56589 14.0659C6.09705 14.5347 5.83366 15.1706 5.83366 15.8337V17.5003C5.83366 17.9606 5.46056 18.3337 5.00033 18.3337C4.54009 18.3337 4.16699 17.9606 4.16699 17.5003V15.8337C4.16699 14.7286 4.60598 13.6688 5.38738 12.8874C6.16878 12.106 7.22859 11.667 8.33366 11.667H11.667C12.7721 11.667 13.8319 12.106 14.6133 12.8874C15.3947 13.6688 15.8337 14.7286 15.8337 15.8337V17.5003C15.8337 17.9606 15.4606 18.3337 15.0003 18.3337C14.5401 18.3337 14.167 17.9606 14.167 17.5003V15.8337C14.167 15.1706 13.9036 14.5347 13.4348 14.0659C12.9659 13.597 12.33 13.3337 11.667 13.3337H8.33366Z" fill="currentColor"/></symbol>
	<symbol id="ShoppingCart" width="40" height="40" viewBox="0 0 40 40" fill="none" xmlns="http://www.w3.org/2000/svg"><path d="M14.9997 5.00033H13.333C13.333 3.15866 11.8413 1.66699 9.99968 1.66699C8.15801 1.66699 6.66634 3.15866 6.66634 5.00033H4.99967C4.08301 5.00033 3.33301 5.75033 3.33301 6.66699V16.667C3.33301 17.5837 4.08301 18.3337 4.99967 18.3337H14.9997C15.9163 18.3337 16.6663 17.5837 16.6663 16.667V6.66699C16.6663 5.75033 15.9163 5.00033 14.9997 5.00033ZM9.99968 3.33366C10.9163 3.33366 11.6663 4.08366 11.6663 5.00033H8.33301C8.33301 4.08366 9.08301 3.33366 9.99968 3.33366ZM14.9997 16.667H4.99967V6.66699H6.66634V8.33366C6.66634 8.79199 7.04134 9.16699 7.49967 9.16699C7.95801 9.16699 8.33301 8.79199 8.33301 8.33366V6.66699H11.6663V8.33366C11.6663 8.79199 12.0413 9.16699 12.4997 9.16699C12.958 9.16699 13.333 8.79199 13.333 8.33366V6.66699H14.9997V16.667Z" fill="currentColor"/></symbol>
	<symbol id="Bars3" xmlns="http://www.w3.org/2000/svg" viewBox="0 0 20 20" stroke="currentColor" fill="none"><path fill-rule="evenodd" clip-rule="evenodd" d="M2.5 5.00033C2.5 4.54009 2.8731 4.16699 3.33333 4.16699H16.6667C17.1269 4.16699 17.5 4.54009 17.5 5.00033C17.5 5.46056 17.1269 5.83366 16.6667 5.83366H3.33333C2.8731 5.83366 2.5 5.46056 2.5 5.00033ZM2.5 10.0003C2.5 9.54009 2.8731 9.16699 3.33333 9.16699H16.6667C17.1269 9.16699 17.5 9.54009 17.5 10.0003C17.5 10.4606 17.1269 10.8337 16.6667 10.8337H3.33333C2.8731 10.8337 2.5 10.4606 2.5 10.0003ZM2.5 15.0003C2.5 14.5401 2.8731 14.167 3.33333 14.167H16.6667C17.1269 14.167 17.5 14.5401 17.5 15.0003C17.5 15.4606 17.1269 15.8337 16.6667 15.8337H3.33333C2.8731 15.8337 2.5 15.4606 2.5 15.0003Z" fill="currentColor"/></symbol>
	<symbol id="Heart" xmlns="http://www.w3.org/2000/svg" fill="none" viewBox="0 0 24 24" stroke="currentColor"><path stroke-linecap="round" stroke-linejoin="round" d="M21 8.25c0-2.485-2.099-4.5-4.688-4.5-1.935 0-3.597 1.126-4.312 2.733-.715-1.607-2.377-2.733-4.313-2.733C5.1 3.75 3 5.765 3 8.25c0 7.22 9 12 9 12s9-4.78 9-12z" /></symbol>
	<symbol id="MagnifyingGlass" width="20" height="20" viewBox="0 0 20 20" fill="none" xmlns="http://www.w3.org/2000/svg"><path fill-rule="evenodd" clip-rule="evenodd" d="M8.33366 3.33366C5.57223 3.33366 3.33366 5.57223 3.33366 8.33366C3.33366 11.0951 5.57223 13.3337 8.33366 13.3337C11.0951 13.3337 13.3337 11.0951 13.3337 8.33366C13.3337 5.57223 11.0951 3.33366 8.33366 3.33366ZM1.66699 8.33366C1.66699 4.65176 4.65176 1.66699 8.33366 1.66699C12.0156 1.66699 15.0003 4.65176 15.0003 8.33366C15.0003 9.87425 14.4778 11.2928 13.6002 12.4217L18.0896 16.9111C18.415 17.2365 18.415 17.7641 18.0896 18.0896C17.7641 18.415 17.2365 18.415 16.9111 18.0896L12.4217 13.6002C11.2928 14.4778 9.87425 15.0003 8.33366 15.0003C4.65176 15.0003 1.66699 12.0156 1.66699 8.33366Z" fill="currentColor"/></symbol>
	<symbol id="XMark" xmlns="http://www.w3.org/2000/svg" fill="none" viewBox="0 0 24 24" stroke="currentColor"><path stroke-linecap="round" stroke-linejoin="round" d="M6 18L18 6M6 6l12 12" /></symbol>
	<symbol id="Plus" xmlns="http://www.w3.org/2000/svg" fill="none" viewBox="0 0 24 24" stroke="currentColor"><path stroke-linecap="round" stroke-linejoin="round" d="M12 4.5v15m7.5-7.5h-15" /></symbol>
	<symbol id="Minus" xmlns="http://www.w3.org/2000/svg" fill="none" viewBox="0 0 24 24" stroke="currentColor"><path stroke-linecap="round" stroke-linejoin="round" d="M19.5 12h-15" /></symbol>
	<symbol id="MapPin" xmlns="http://www.w3.org/2000/svg" fill="none" viewBox="0 0 24 24" stroke="currentColor"><path stroke-linecap="round" stroke-linejoin="round" d="M15 10.5a3 3 0 11-6 0 3 3 0 016 0z" /><path stroke-linecap="round" stroke-linejoin="round" d="M19.5 10.5c0 7.142-7.5 11.25-7.5 11.25S4.5 17.642 4.5 10.5a7.5 7.5 0 1115 0z" /></symbol>	
	<symbol id="Phone" xmlns="http://www.w3.org/2000/svg" fill="none" viewBox="0 0 24 24" stroke="currentColor"><path stroke-linecap="round" stroke-linejoin="round" d="M2.25 6.75c0 8.284 6.716 15 15 15h2.25a2.25 2.25 0 002.25-2.25v-1.372c0-.516-.351-.966-.852-1.091l-4.423-1.106c-.44-.11-.902.055-1.173.417l-.97 1.293c-.282.376-.769.542-1.21.38a12.035 12.035 0 01-7.143-7.143c-.162-.441.004-.928.38-1.21l1.293-.97c.363-.271.527-.734.417-1.173L6.963 3.102a1.125 1.125 0 00-1.091-.852H4.5A2.25 2.25 0 002.25 4.5v2.25z" /></symbol>
	<symbol id="Elo" xmlns="http://www.w3.org/2000/svg" viewBox="0 0 40 14" stroke="currentColor" fill="none"><path d="M6.57655 3.09309C6.98496 2.95495 7.4234 2.88288 7.87985 2.88288C9.87385 2.88288 11.5375 4.3003 11.9159 6.18018L14.7387 5.6036C14.0901 2.40841 11.2672 0 7.87985 0C7.10508 0 6.36033 0.126126 5.66364 0.36036L6.57655 3.09309Z" fill="currentColor"/><path d="M3.24323 12.2463L5.15314 10.0841C4.30029 9.32733 3.76576 8.22823 3.76576 6.997C3.76576 5.77178 4.30029 4.66667 5.15314 3.91592L3.24323 1.75977C1.79579 3.04505 0.882874 4.91292 0.882874 7.00301C0.882874 9.08709 1.79579 10.961 3.24323 12.2463Z" fill="currentColor"/><path d="M11.9159 7.82617C11.5315 9.70605 9.87387 11.1175 7.87988 11.1175C7.42342 11.1175 6.98498 11.0454 6.57057 10.9073L5.65765 13.64C6.35435 13.8742 7.1051 14.0003 7.87988 14.0003C11.2673 14.0003 14.0901 11.5979 14.7387 8.40275L11.9159 7.82617Z" fill="currentColor"/><path d="M24.1441 9.75962C23.6757 10.2161 23.045 10.4924 22.3484 10.4803C21.8679 10.4743 21.4234 10.3302 21.0511 10.0899L20.1141 11.5794C20.7568 11.9818 21.5075 12.2221 22.3243 12.2341C23.5075 12.2521 24.5886 11.7836 25.3754 11.0209L24.1441 9.75962ZM22.4505 3.68755C20.0961 3.65151 18.1502 5.5374 18.1141 7.89175C18.1021 8.77463 18.3544 9.60346 18.8048 10.2881L26.5405 6.97884C26.1081 5.12298 24.4505 3.72358 22.4505 3.68755ZM19.8859 8.22809C19.8739 8.13199 19.8679 8.02989 19.8679 7.92779C19.8919 6.5404 21.033 5.42929 22.4204 5.45331C23.1772 5.46532 23.8499 5.80767 24.3003 6.34821L19.8859 8.22809ZM28.973 1.76562V10.0119L30.4024 10.6065L29.7237 12.2341L28.3063 11.6455C27.988 11.5074 27.7718 11.2972 27.6096 11.0569C27.4535 10.8167 27.3333 10.4803 27.3333 10.0359V1.76562H28.973Z" fill="currentColor"/><path d="M34.1321 5.57925C34.3844 5.49516 34.6487 5.45312 34.9309 5.45312C36.1502 5.45312 37.1592 6.31798 37.3934 7.46513L39.1171 7.11078C38.7207 5.15882 36.997 3.69336 34.9309 3.69336C34.4565 3.69336 34 3.77144 33.5796 3.90958L34.1321 5.57925ZM32.0961 11.1588L33.2613 9.84351C32.7387 9.38105 32.4144 8.70837 32.4144 7.95762C32.4144 7.20687 32.7448 6.5342 33.2613 6.07774L32.0961 4.76243C31.2132 5.54321 30.6547 6.69036 30.6547 7.96363C30.6547 9.2369 31.2132 10.378 32.0961 11.1588ZM37.3934 8.46813C37.1592 9.61528 36.1442 10.4801 34.9309 10.4801C34.6547 10.4801 34.3844 10.4321 34.1321 10.348L33.5736 12.0177C34 12.1618 34.4565 12.2399 34.9309 12.2399C36.997 12.2399 38.7207 10.7744 39.1171 8.82249L37.3934 8.46813Z" fill="currentColor"/></symbol>
	<symbol id="Mastercard" xmlns="http://www.w3.org/2000/svg" viewBox="0 0 26 20" fill="none" stroke="currentColor"><g clip-path="url(#clip0_81_156)"><path d="M4.77191 19.9552V18.6263C4.77191 18.1167 4.46174 17.7846 3.95265 17.7846C3.68527 17.7846 3.39918 17.8734 3.19971 18.159C3.04463 17.9151 2.82538 17.7846 2.49116 17.7846C2.36689 17.7793 2.24323 17.8048 2.13124 17.8589C2.01926 17.913 1.92244 17.9941 1.84944 18.0948V17.8274H1.42859V19.9536H1.84944V18.737C1.84944 18.3627 2.07083 18.1836 2.381 18.1836C2.69116 18.1836 2.86816 18.383 2.86816 18.737V19.9552H3.28902V18.737C3.28902 18.3627 3.51041 18.1836 3.82057 18.1836C4.13073 18.1836 4.30773 18.383 4.30773 18.737V19.9552H4.77191ZM11.6821 17.8509H10.9067V17.2092H10.4869V17.8509H10.0441V18.2253H10.4869V19.2242C10.4869 19.7114 10.6639 19.9996 11.1954 19.9996C11.3968 19.9954 11.5941 19.9422 11.7703 19.8445L11.6371 19.4702C11.5177 19.5449 11.3791 19.5833 11.2382 19.5809C11.0168 19.5809 10.9061 19.4477 10.9061 19.2263V18.2082H11.6815V17.8536L11.6821 17.8509ZM15.6243 17.7846C15.5097 17.7821 15.3964 17.8093 15.2954 17.8637C15.1945 17.918 15.1093 17.9977 15.0484 18.0948V17.8274H14.6275V19.9536H15.0484V18.7595C15.0484 18.405 15.2254 18.1836 15.5136 18.1836C15.6109 18.1875 15.7074 18.2024 15.8013 18.2279L15.9345 17.829C15.8329 17.8034 15.729 17.7885 15.6243 17.7846ZM9.66656 18.006C9.44517 17.8509 9.13501 17.7846 8.80292 17.7846C8.27137 17.7846 7.93928 18.0285 7.93928 18.4493C7.93928 18.8039 8.18314 19.0028 8.64784 19.0697L8.86923 19.0916C9.11308 19.136 9.26816 19.2247 9.26816 19.3354C9.26816 19.4905 9.09116 19.6028 8.75854 19.6028C8.50456 19.608 8.2558 19.5303 8.04998 19.3814L7.82859 19.7135C8.13875 19.9349 8.51522 19.9809 8.73768 19.9809C9.358 19.9809 9.69009 19.6932 9.69009 19.2943C9.69009 18.9199 9.42271 18.7408 8.95907 18.6739L8.73768 18.652C8.53822 18.6301 8.36335 18.5632 8.36335 18.4306C8.36335 18.2755 8.54036 18.1632 8.78421 18.1632C9.05159 18.1632 9.31576 18.2739 9.44891 18.3402L9.66656 18.006ZM16.0896 18.8921C16.0896 19.5338 16.5104 19.9996 17.197 19.9996C17.5072 19.9996 17.7286 19.9333 17.95 19.7558L17.7286 19.4237C17.5718 19.5506 17.3768 19.6209 17.1751 19.6231C16.8008 19.6231 16.5104 19.3354 16.5104 18.9146C16.5104 18.4937 16.797 18.2082 17.1751 18.2082C17.3768 18.2104 17.5718 18.2807 17.7286 18.4076L17.95 18.0755C17.7286 17.8985 17.5072 17.8317 17.197 17.8317C16.5323 17.7873 16.0896 18.2525 16.0896 18.8948V18.8921ZM13.1216 17.7846C12.5013 17.7846 12.0805 18.2274 12.0805 18.8921C12.0805 19.5568 12.5232 19.9996 13.1655 19.9996C13.4779 20.0062 13.7831 19.9046 14.0291 19.7119L13.8077 19.4017C13.6298 19.5396 13.4125 19.6172 13.1874 19.6231C12.8997 19.6231 12.5896 19.4461 12.5457 19.0697H14.1184V18.8927C14.1184 18.2279 13.7195 17.7852 13.1216 17.7852V17.7846ZM13.0997 18.1836C13.4099 18.1836 13.6313 18.383 13.6532 18.7151H12.5019C12.5682 18.405 12.7692 18.1836 13.0997 18.1836ZM7.36335 18.8921V17.829H6.94249V18.0964C6.78741 17.8969 6.56816 17.7862 6.25586 17.7862C5.658 17.7862 5.21469 18.2515 5.21469 18.8937C5.21469 19.536 5.65747 20.0012 6.25586 20.0012C6.56602 20.0012 6.78741 19.8905 6.94249 19.691V19.9584H7.36335V18.8921ZM5.658 18.8921C5.658 18.4932 5.90185 18.1836 6.32271 18.1836C6.72164 18.1836 6.96442 18.4937 6.96442 18.8921C6.96442 19.313 6.69704 19.6007 6.32271 19.6007C5.90185 19.6226 5.658 19.2905 5.658 18.8921ZM22.0259 17.7846C21.9113 17.7821 21.798 17.8093 21.697 17.8637C21.5961 17.918 21.5109 17.9977 21.45 18.0948V17.8274H21.0291V19.9536H21.4495V18.7595C21.4495 18.405 21.6265 18.1836 21.9147 18.1836C22.012 18.1875 22.1085 18.2024 22.2024 18.2279L22.3355 17.829C22.234 17.8034 22.13 17.7885 22.0254 17.7846H22.0259ZM20.3869 18.8921V17.829H19.966V18.0964C19.8109 17.8969 19.5917 17.7862 19.2794 17.7862C18.6815 17.7862 18.2382 18.2515 18.2382 18.8937C18.2382 19.536 18.681 20.0012 19.2794 20.0012C19.5896 20.0012 19.8109 19.8905 19.966 19.691V19.9584H20.3869V18.8921ZM18.6815 18.8921C18.6815 18.4932 18.9254 18.1836 19.3462 18.1836C19.7452 18.1836 19.988 18.4937 19.988 18.8921C19.988 19.313 19.7206 19.6007 19.3462 19.6007C18.9254 19.6226 18.6815 19.2905 18.6815 18.8921ZM24.6618 18.8921V16.9873H24.2409V18.0948C24.0858 17.8953 23.8666 17.7846 23.5543 17.7846C22.9564 17.7846 22.5131 18.2499 22.5131 18.8921C22.5131 19.5344 22.9559 19.9996 23.5543 19.9996C23.8644 19.9996 24.0858 19.8889 24.2409 19.6894V19.9568H24.6618V18.8921ZM22.9564 18.8921C22.9564 18.4932 23.2003 18.1836 23.6211 18.1836C24.02 18.1836 24.2628 18.4937 24.2628 18.8921C24.2628 19.313 23.9954 19.6007 23.6211 19.6007C23.1997 19.6231 22.9559 19.291 22.9559 18.8921H22.9564Z" fill="currentColor"/><path d="M9.95478 7.97327C9.95505 6.76731 10.2281 5.57704 10.7536 4.49159C11.279 3.40613 12.0433 2.45361 12.989 1.70535C11.8128 0.780601 10.4002 0.205442 8.9126 0.045623C7.42499 -0.114196 5.92242 0.147775 4.57667 0.801588C3.23091 1.4554 2.09627 2.47468 1.30244 3.74289C0.508619 5.01111 0.0876465 6.47709 0.0876465 7.97327C0.0876465 9.46944 0.508619 10.9354 1.30244 12.2036C2.09627 13.4719 3.23091 14.4911 4.57667 15.1449C5.92242 15.7988 7.42499 16.0607 8.9126 15.9009C10.4002 15.7411 11.8128 15.1659 12.989 14.2412C12.0433 13.4929 11.279 12.5404 10.7536 11.4549C10.2281 10.3695 9.95505 9.17922 9.95478 7.97327Z" fill="currentColor"/><path d="M25.9019 7.97297C25.9029 9.46805 25.4832 10.9333 24.6907 12.201C23.8982 13.4688 22.7648 14.4879 21.4203 15.1418C20.0758 15.7957 18.5744 16.0579 17.0879 15.8986C15.6013 15.7393 14.1896 15.1648 13.0142 14.2409C13.9601 13.4928 14.7245 12.5403 15.25 11.4548C15.7755 10.3693 16.0485 9.17898 16.0485 7.97297C16.0485 6.76696 15.7755 5.5766 15.25 4.4911C14.7245 3.4056 13.9601 2.45312 13.0142 1.70506C14.1896 0.781104 15.6013 0.20662 17.0879 0.0473072C18.5744 -0.112005 20.0758 0.150287 21.4203 0.804186C22.7648 1.45808 23.8982 2.47719 24.6907 3.74493C25.4832 5.01268 25.9029 6.47789 25.9019 7.97297Z" fill="currentColor" fill-opacity="0.4"/><path fill-rule="evenodd" clip-rule="evenodd" d="M13.0141 1.70508H12.989C12.0432 2.45333 11.279 3.40585 10.7536 4.49131C10.2281 5.57677 9.95504 6.76704 9.95477 7.97299C9.95504 9.17894 10.2281 10.3692 10.7536 11.4547C11.279 12.5401 12.0433 13.4926 12.989 14.2409H13.0141C13.0141 14.2409 13.0141 14.2409 13.0141 14.2409C13.9601 13.4928 14.7245 12.5404 15.25 11.4549C15.7755 10.3694 16.0484 9.17899 16.0484 7.97299C16.0484 6.76698 15.7755 5.57661 15.25 4.49111C14.7245 3.40561 13.9601 2.45314 13.0141 1.70508Z" fill="currentColor" fill-opacity="0.6"/></g><defs><clipPath id="clip0_81_156"><rect width="25.8027" height="20" fill="white" transform="translate(0.0986328)"/></clipPath></defs></symbol>
	<symbol id="Visa" xmlns="http://www.w3.org/2000/svg" viewBox="0 0 40 12" fill="none" stroke="currentColor"><path d="M14.2514 11.8628L16.2325 0.237305H19.4012L17.4187 11.8628H14.2514Z" fill="currentColor"/><path d="M28.8667 0.488266C28.2389 0.252744 27.2552 0 26.0267 0C22.8956 0 20.6902 1.57674 20.6714 3.83653C20.6537 5.50698 22.2459 6.43886 23.4479 6.99494C24.6813 7.56486 25.0959 7.92824 25.09 8.437C25.0821 9.21631 24.105 9.57221 23.1942 9.57221C21.926 9.57221 21.2522 9.39601 20.2115 8.96208L19.8031 8.77728L19.3585 11.3797C20.0986 11.7043 21.4671 11.9854 22.8882 12C26.2191 12 28.3815 10.4413 28.4061 8.02807C28.4179 6.70556 27.5737 5.69921 25.7455 4.86948C24.638 4.33169 23.9597 3.97282 23.9669 3.42826C23.9669 2.94504 24.541 2.42833 25.7816 2.42833C26.8177 2.41223 27.5684 2.6382 28.1533 2.87372L28.4372 3.00787L28.8667 0.488266Z" fill="currentColor"/><path d="M37.0208 0.237305H34.5723C33.8138 0.237305 33.2461 0.444322 32.913 1.20137L28.2071 11.8552H31.5345C31.5345 11.8552 32.0785 10.4228 32.2015 10.1082C32.5651 10.1082 35.7976 10.1132 36.2597 10.1132C36.3545 10.5202 36.6452 11.8552 36.6452 11.8552H39.5855L37.0208 0.237305ZM33.136 7.74409C33.3981 7.07428 34.3985 4.49428 34.3985 4.49428C34.3798 4.52522 34.6587 3.82121 34.8186 3.38473L35.0328 4.38703C35.0328 4.38703 35.6395 7.16205 35.7663 7.74391H33.136V7.74409Z" fill="currentColor"/><path d="M0.45503 0.237305L0.414551 0.479138C1.66716 0.782359 2.78593 1.22123 3.76542 1.76717L6.57706 11.8441L9.92966 11.8404L14.9183 0.237305H11.5615L8.45929 8.16502L8.12885 6.55384C8.11337 6.50406 8.09654 6.4542 8.07932 6.40422L7.00087 1.21879C6.80912 0.482646 6.25282 0.262959 5.56461 0.237305H0.45503Z" fill="currentColor"/></symbol>		
	<symbol id="Pix" viewBox="0 0 512 512" xmlns="http://www.w3.org/2000/svg" fill="none" stroke="currentColor"> <defs/> <g fill="currentColor" fill-rule="evenodd"> <path d="M393.072 391.897c-20.082 0-38.969-7.81-53.176-22.02l-77.069-77.067c-5.375-5.375-14.773-5.395-20.17 0l-76.784 76.786c-14.209 14.207-33.095 22.019-53.179 22.019h-9.247l97.521 97.52c30.375 30.375 79.614 30.375 109.988 0l97.239-97.238h-15.123zm-105.049 74.327c-8.55 8.53-19.93 13.25-32.05 13.25h-.02c-12.12 0-23.522-4.721-32.05-13.25l-56.855-56.855c7.875-4.613 15.165-10.248 21.758-16.84l63.948-63.948 64.23 64.23c7.637 7.66 16.188 14.013 25.478 18.952l-54.439 54.46zM310.958 22.78c-30.374-30.374-79.613-30.374-109.988 0l-97.52 97.52h9.247c20.082 0 38.97 7.834 53.178 22.02l76.784 76.785c5.57 5.592 14.622 5.57 20.17 0l77.069-77.068c14.207-14.187 33.094-22.02 53.176-22.02h15.123l-97.239-97.237zm6.028 96.346l-64.23 64.23-63.97-63.97c-6.593-6.592-13.86-12.206-21.736-16.818l56.853-56.877c17.69-17.645 46.476-17.668 64.121 0l54.44 54.461c-9.292 4.961-17.842 11.315-25.479 18.974h.001z"/> <path d="M489.149 200.97l-58.379-58.377h-37.706c-13.838 0-27.394 5.635-37.185 15.426l-77.068 77.069c-7.202 7.18-16.623 10.77-26.067 10.77-9.443 0-18.885-3.59-26.066-10.77l-76.785-76.785c-9.792-9.814-23.346-15.427-37.207-15.427h-31.81L22.78 200.97c-30.374 30.375-30.374 79.614 0 109.988l58.095 58.074 31.81.021c13.86 0 27.416-5.635 37.208-15.426l76.784-76.764c13.925-13.947 38.208-13.924 52.133-.02l77.068 77.066c9.791 9.792 23.346 15.405 37.185 15.405h37.706l58.379-58.356c30.374-30.374 30.374-79.613 0-109.988zm-362.19 129.724c-3.763 3.786-8.942 5.917-14.273 5.917H94.302l-48.59-48.564c-17.689-17.69-17.689-46.476 0-64.143L94.3 175.296h18.385c5.331 0 10.51 2.154 14.295 5.918l74.74 74.74-74.761 74.74zm339.257-42.647l-48.848 48.87h-24.305c-5.309 0-10.508-2.155-14.251-5.92l-75.023-75.043 75.023-75.023c3.743-3.764 8.942-5.918 14.252-5.918h24.304l48.847 48.891c8.573 8.551 13.273 19.93 13.273 32.05 0 12.141-4.7 23.52-13.273 32.093z"/> </g> </symbol>
	<!-- <symbol id="Facebook" xmlns="http://www.w3.org/2000/svg" viewBox="0 0 24 24" stroke="currentColor" fill="none" stroke-linecap="round" stroke-linejoin="round"><path stroke="none" d="M0 0h24v24H0z" fill="none" /><path d="M7 10v4h3v7h4v-7h3l1 -4h-4v-2a1 1 0 0 1 1 -1h3v-4h-3a5 5 0 0 0 -5 5v2h-3" /></symbol> -->
	<!-- <symbol id="Instagram" xmlns="http://www.w3.org/2000/svg" viewBox="0 0 24 24" stroke="currentColor" fill="none" stroke-linecap="round" stroke-linejoin="round"><path stroke="none" d="M0 0h24v24H0z" fill="none" /><rect x="4" y="4" width="16" height="16" rx="4" /><circle cx="12" cy="12" r="3" /><line x1="16.5" y1="7.5" x2="16.5" y2="7.501" /></symbol> -->
	<symbol id="Tiktok" xmlns="http://www.w3.org/2000/svg" viewBox="0 0 24 24" stroke="currentColor" fill="none" stroke-linecap="round" stroke-linejoin="round"><path stroke="none" d="M0 0h24v24H0z" fill="none" /><path d="M9 12a4 4 0 1 0 4 4v-12a5 5 0 0 0 5 5" /></symbol>
	<symbol id="Truck" xmlns="http://www.w3.org/2000/svg"  viewBox="0 0 36 28" stroke="currentColor" fill="none"><path d="M14 22.333C14 24.174 12.5077 25.6663 10.6667 25.6663C8.82576 25.6663 7.33337 24.174 7.33337 22.333M14 22.333C14 20.4921 12.5077 18.9997 10.6667 18.9997C8.82576 18.9997 7.33337 20.4921 7.33337 22.333M14 22.333H24M7.33337 22.333H4.00004V15.6663M30.6667 22.333C30.6667 24.174 29.1743 25.6663 27.3334 25.6663C25.4924 25.6663 24 24.174 24 22.333M30.6667 22.333C30.6667 20.4921 29.1743 18.9997 27.3334 18.9997C25.4924 18.9997 24 20.4921 24 22.333M30.6667 22.333H34V12.333M2.33337 2.33301H20.6667V22.333M34 12.333H20.6667M34 12.333L29 3.99967H20.6667M4.00004 8.99967H10.6667" stroke-linecap="round" stroke-linejoin="round"/></symbol>
	<symbol id="Discount" xmlns="http://www.w3.org/2000/svg" viewBox="0 0 34 34" stroke="currentColor" fill="none"><path d="M12 21.9998L22 11.9998M13.6667 12.8332C13.6667 13.2934 13.2936 13.6665 12.8333 13.6665C12.3731 13.6665 12 13.2934 12 12.8332C12 12.3729 12.3731 11.9998 12.8333 11.9998C13.2936 11.9998 13.6667 12.3729 13.6667 12.8332ZM22 21.1665C22 21.6267 21.6269 21.9998 21.1667 21.9998C20.7064 21.9998 20.3333 21.6267 20.3333 21.1665C20.3333 20.7063 20.7064 20.3332 21.1667 20.3332C21.6269 20.3332 22 20.7063 22 21.1665ZM5.33334 8.99979C5.33334 8.02733 5.71965 7.0947 6.40728 6.40707C7.09491 5.71943 8.02755 5.33313 9.00001 5.33313H10.6667C11.6348 5.33257 12.5635 4.94913 13.25 4.26646L14.4167 3.09979C14.7574 2.75713 15.1625 2.4852 15.6087 2.29964C16.0549 2.11408 16.5334 2.01855 17.0167 2.01855C17.4999 2.01855 17.9784 2.11408 18.4246 2.29964C18.8708 2.4852 19.2759 2.75713 19.6167 3.09979L20.7833 4.26646C21.4699 4.94913 22.3985 5.33257 23.3667 5.33313H25.0333C26.0058 5.33313 26.9384 5.71943 27.6261 6.40707C28.3137 7.0947 28.7 8.02733 28.7 8.99979V10.6665C28.7006 11.6346 29.084 12.5633 29.7667 13.2498L30.9333 14.4165C31.276 14.7572 31.5479 15.1623 31.7335 15.6085C31.9191 16.0547 32.0146 16.5332 32.0146 17.0165C32.0146 17.4997 31.9191 17.9782 31.7335 18.4244C31.5479 18.8706 31.276 19.2757 30.9333 19.6165L29.7667 20.7831C29.084 21.4696 28.7006 22.3983 28.7 23.3665V25.0331C28.7 26.0056 28.3137 26.9382 27.6261 27.6259C26.9384 28.3135 26.0058 28.6998 25.0333 28.6998H23.3667C22.3985 28.7003 21.4699 29.0838 20.7833 29.7665L19.6167 30.9331C19.2759 31.2758 18.8708 31.5477 18.4246 31.7333C17.9784 31.9188 17.4999 32.0144 17.0167 32.0144C16.5334 32.0144 16.0549 31.9188 15.6087 31.7333C15.1625 31.5477 14.7574 31.2758 14.4167 30.9331L13.25 29.7665C12.5635 29.0838 11.6348 28.7003 10.6667 28.6998H9.00001C8.02755 28.6998 7.09491 28.3135 6.40728 27.6259C5.71965 26.9382 5.33334 26.0056 5.33334 25.0331V23.3665C5.33279 22.3983 4.94934 21.4696 4.26667 20.7831L3.10001 19.6165C2.75734 19.2757 2.48541 18.8706 2.29985 18.4244C2.11429 17.9782 2.01877 17.4997 2.01877 17.0165C2.01877 16.5332 2.11429 16.0547 2.29985 15.6085C2.48541 15.1623 2.75734 14.7572 3.10001 14.4165L4.26667 13.2498C4.94934 12.5633 5.33279 11.6346 5.33334 10.6665V8.99979Z" stroke-linecap="round" stroke-linejoin="round"/></symbol>
	<symbol id="Return" xmlns="http://www.w3.org/2000/svg" viewBox="0 0 34 30" stroke="currentColor" fill="none"><path d="M32 6.66699H2M32 6.66699L27 11.667M32 6.66699L27 1.66699M7 28.3337L2 23.3337M2 23.3337L7 18.3337M2 23.3337H32" stroke-linecap="round" stroke-linejoin="round"/></symbol>			
	<symbol id="CreditCard" xmlns="http://www.w3.org/2000/svg" viewBox="0 0 34 28" stroke="currentColor" fill="none"><path d="M2 10.6663H32M8.66667 18.9997H8.68333M15.3333 18.9997H18.6667M7 2.33301H27C29.7614 2.33301 32 4.57158 32 7.33301V20.6663C32 23.4278 29.7614 25.6663 27 25.6663H7C4.23858 25.6663 2 23.4278 2 20.6663V7.33301C2 4.57158 4.23858 2.33301 7 2.33301Z" stroke-linecap="round" stroke-linejoin="round"/></symbol>		
	<symbol id="Deco" xmlns="http://www.w3.org/2000/svg" viewBox="0 0 58 20" stroke="currentColor" fill="none"><path d="M49.5359 16.9432C47.3666 16.9432 46.9948 14.8019 47.6797 12.7178C48.2221 11.0615 49.5066 9.31991 51.4201 9.31991C53.676 9.31991 53.9039 11.6038 53.247 13.6026C52.6753 15.3162 51.3908 16.9432 49.5359 16.9432ZM48.879 19.9973C52.6473 19.9973 56.0159 17.9133 57.3578 14.1449C58.7569 10.1767 57.1859 6.2085 52.0477 6.2085C47.9369 6.2085 44.7962 8.77758 43.5969 12.1755C42.2551 16.0011 43.7115 19.9973 48.879 19.9973ZM36.3747 19.9973C37.8591 19.9973 39.3729 19.6829 40.4282 19.2271C40.8 18.1998 40.828 17.2004 40.5428 16.201C39.8006 16.4862 38.7732 16.7727 37.7165 16.7727C34.861 16.7727 34.6051 14.6606 35.2048 12.8617C35.8617 10.9496 37.574 9.40786 40.287 9.40786C41.0012 9.40786 41.6861 9.52246 42.1138 9.77963C42.856 8.78025 43.2838 7.78086 43.3704 6.7535C42.7428 6.46834 41.6861 6.21117 40.3163 6.21117C35.863 6.21117 32.3505 8.80956 31.0953 12.406C29.896 15.8039 30.8101 20 36.3774 20L36.3747 19.9973ZM21.0442 11.8037C21.8143 10.0901 23.0136 9.09206 24.5846 9.09206C25.9838 9.09206 26.2116 9.86225 25.9838 10.4619C25.6413 11.2894 24.47 11.8037 21.0442 11.8037ZM22.2714 19.9973C23.7278 19.9973 25.7826 19.7122 27.4962 18.8554C27.7813 17.9133 27.7534 16.9712 27.4389 15.9998C26.3542 16.5421 24.8405 16.8566 23.4707 16.8566C21.4439 16.8566 20.3299 16.1997 20.3592 14.5447C25.8972 14.6873 28.7807 13.6879 29.7228 11.2334C30.6649 8.7496 29.0379 6.2085 25.1829 6.2085C21.0721 6.2085 18.046 9.14935 16.932 12.3181C15.7621 15.6867 16.5043 19.9973 22.2701 19.9973H22.2714ZM5.72293 19.9973C9.52059 19.9973 11.6806 18.2557 14.1924 12.9177C15.5622 9.97684 16.7335 7.09329 18.0753 4.23905L19.6743 4.7534C20.1021 4.89598 20.3313 4.6388 20.1314 4.23905L18.1899 0.270827C18.0473 -0.0143302 17.7329 -0.0436454 17.533 0.0429678L12.708 1.86984C12.3082 2.01242 12.3362 2.38419 12.7359 2.49745L14.1631 2.95451C12.9931 5.6102 11.5367 9.60641 10.3654 12.1182C9.05155 14.9165 8.39595 16.8859 6.16933 16.8859C3.9427 16.8859 3.57093 15.1443 4.51301 12.6605C5.59768 9.77697 7.42455 8.92016 9.5086 9.51979C10.0802 8.72028 10.508 7.52103 10.6785 6.43636C10.0789 6.26447 9.36469 6.2085 8.76639 6.2085C5.3978 6.2085 2.05719 7.95009 0.687373 11.6038C-1.0822 16.3143 0.554122 19.9973 5.7216 19.9973H5.72293Z" fill="currentColor"/></symbol>
	<symbol id="Discord" xmlns="http://www.w3.org/2000/svg" viewBox="0 0 127.14 96.36" stroke="currentColor" fill="none"><g id="图层_2" data-name="图层 2"><g id="Discord_Logos" data-name="Discord Logos"><g id="Discord_Logo_-_Large_-_White" data-name="Discord Logo - Large - White"><path class="cls-1" d="M107.7,8.07A105.15,105.15,0,0,0,81.47,0a72.06,72.06,0,0,0-3.36,6.83A97.68,97.68,0,0,0,49,6.83,72.37,72.37,0,0,0,45.64,0,105.89,105.89,0,0,0,19.39,8.09C2.79,32.65-1.71,56.6.54,80.21h0A105.73,105.73,0,0,0,32.71,96.36,77.7,77.7,0,0,0,39.6,85.25a68.42,68.42,0,0,1-10.85-5.18c.91-.66,1.8-1.34,2.66-2a75.57,75.57,0,0,0,64.32,0c.87.71,1.76,1.39,2.66,2a68.68,68.68,0,0,1-10.87,5.19,77,77,0,0,0,6.89,11.1A105.25,105.25,0,0,0,126.6,80.22h0C129.24,52.84,122.09,29.11,107.7,8.07ZM42.45,65.69C36.18,65.69,31,60,31,53s5-12.74,11.43-12.74S54,46,53.89,53,48.84,65.69,42.45,65.69Zm42.24,0C78.41,65.69,73.25,60,73.25,53s5-12.74,11.44-12.74S96.23,46,96.12,53,91.08,65.69,84.69,65.69Z"/></g></g></g></symbol>
	<symbol id="FilterList" xmlns="http://www.w3.org/2000/svg" viewBox="0 0 16 16" fill="none"><path d="M6.66667 12H9.33333V10.6667H6.66667V12ZM2 4V5.33333H14V4H2ZM4 8.66667H12V7.33333H4V8.66667Z" fill="currentColor"/></symbol>
	<symbol id="ChevronUp" xmlns="http://www.w3.org/2000/svg" viewBox="0 0 16 16" stroke="currentColor" fill="none"><path fill-rule="evenodd" clip-rule="evenodd" d="M7.52851 5.52827C7.78886 5.26792 8.21097 5.26792 8.47132 5.52827L12.4713 9.52827C12.7317 9.78862 12.7317 10.2107 12.4713 10.4711C12.211 10.7314 11.7889 10.7314 11.5285 10.4711L7.99992 6.94248L4.47132 10.4711C4.21097 10.7314 3.78886 10.7314 3.52851 10.4711C3.26816 10.2107 3.26816 9.78862 3.52851 9.52827L7.52851 5.52827Z" fill="black"/></symbol>
	<symbol id="Trash" width="20" height="20" viewBox="0 0 20 20" fill="none" xmlns="http://www.w3.org/2000/svg"><path fill-rule="evenodd" clip-rule="evenodd" d="M7.15482 2.15483C7.46738 1.84227 7.89131 1.66667 8.33333 1.66667H11.6667C12.1087 1.66667 12.5326 1.84227 12.8452 2.15483C13.1577 2.46739 13.3333 2.89131 13.3333 3.33334V5H15.8236C15.8295 4.99994 15.8353 4.99994 15.8412 5H16.6667C17.1269 5 17.5 5.3731 17.5 5.83334C17.5 6.29357 17.1269 6.66667 16.6667 6.66667H16.6001L15.833 15.8715C15.8231 16.5207 15.5609 17.1413 15.1011 17.6011C14.6323 18.0699 13.9964 18.3333 13.3333 18.3333H6.66667C6.00362 18.3333 5.36774 18.0699 4.8989 17.6011C4.43906 17.1413 4.17685 16.5207 4.16696 15.8715L3.39989 6.66667H3.33333C2.8731 6.66667 2.5 6.29357 2.5 5.83334C2.5 5.3731 2.8731 5 3.33333 5H4.15878C4.16467 4.99994 4.17055 4.99994 4.17641 5H6.66667V3.33334C6.66667 2.89131 6.84226 2.46739 7.15482 2.15483ZM5.07233 6.66667L5.83045 15.7641C5.83237 15.7871 5.83333 15.8102 5.83333 15.8333C5.83333 16.0543 5.92113 16.2663 6.07741 16.4226C6.23369 16.5789 6.44565 16.6667 6.66667 16.6667H13.3333C13.5543 16.6667 13.7663 16.5789 13.9226 16.4226C14.0789 16.2663 14.1667 16.0543 14.1667 15.8333C14.1667 15.8102 14.1676 15.7871 14.1695 15.7641L14.9277 6.66667H5.07233ZM11.6667 5H8.33333V3.33334H11.6667V5ZM8.33333 8.33334C8.79357 8.33334 9.16667 8.70643 9.16667 9.16667V14.1667C9.16667 14.6269 8.79357 15 8.33333 15C7.8731 15 7.5 14.6269 7.5 14.1667V9.16667C7.5 8.70643 7.8731 8.33334 8.33333 8.33334ZM11.6667 8.33334C12.1269 8.33334 12.5 8.70643 12.5 9.16667V14.1667C12.5 14.6269 12.1269 15 11.6667 15C11.2064 15 10.8333 14.6269 10.8333 14.1667V9.16667C10.8333 8.70643 11.2064 8.33334 11.6667 8.33334Z" fill="currentColor"/></symbol>
	<symbol id="WhatsApp"  xmlns="http://www.w3.org/2000/svg" viewBox="0 0 18 18" fill="none" ><path fill-rule="evenodd" clip-rule="evenodd" d="M13.333 3.94275C12.0977 2.88909 10.5203 2.32246 8.89688 2.34921C7.27345 2.37596 5.71558 2.99425 4.51564 4.08804C3.3157 5.18184 2.55617 6.67594 2.3796 8.28996C2.20302 9.90398 2.62153 11.527 3.5566 12.8543C3.72398 13.0919 3.75547 13.3996 3.63972 13.6661L2.88341 15.408L5.56246 14.9305C5.73665 14.8995 5.9162 14.9247 6.07512 15.0025C7.53336 15.7165 9.20204 15.8737 10.768 15.4448C12.334 15.0158 13.6896 14.0301 14.5804 12.6727C15.4712 11.3152 15.836 9.67933 15.6064 8.07201C15.3767 6.46468 14.5684 4.99641 13.333 3.94275ZM8.86942 0.682773C10.8987 0.649334 12.8704 1.35761 14.4146 2.67469C15.9588 3.99177 16.9692 5.8271 17.2563 7.83626C17.5433 9.84542 17.0873 11.8903 15.9738 13.5871C14.8603 15.2839 13.1658 16.516 11.2083 17.0522C9.34061 17.5638 7.35601 17.4083 5.59455 16.6177L1.64654 17.3213C1.34428 17.3752 1.03687 17.2585 0.846507 17.0176C0.656144 16.7767 0.613663 16.4506 0.735949 16.169L1.93091 13.417C0.947723 11.8367 0.519412 9.96793 0.722814 8.1087C0.943534 6.09118 1.89294 4.22355 3.39287 2.85631C4.8928 1.48907 6.84013 0.716212 8.86942 0.682773ZM6.03312 5.61685C6.26754 5.38243 6.58548 5.25073 6.917 5.25073C7.24852 5.25073 7.56646 5.38243 7.80088 5.61685C8.03531 5.85127 8.167 6.16921 8.167 6.50073V7.33407C8.167 7.66558 8.03531 7.98353 7.80088 8.21795C7.71659 8.30224 7.62149 8.37326 7.51885 8.42964C7.68255 8.89999 7.95113 9.33224 8.30998 9.69109C8.66883 10.0499 9.10107 10.3185 9.57143 10.4822C9.62781 10.3796 9.69882 10.2845 9.78312 10.2002C10.0175 9.96576 10.3355 9.83407 10.667 9.83407H11.5003C11.8319 9.83407 12.1498 9.96576 12.3842 10.2002C12.6186 10.4346 12.7503 10.7525 12.7503 11.0841C12.7503 11.4156 12.6186 11.7335 12.3842 11.9679C12.1498 12.2024 11.8319 12.3341 11.5003 12.3341H10.667C9.34092 12.3341 8.06915 11.8073 7.13147 10.8696C6.19378 9.93192 5.667 8.66015 5.667 7.33407V6.50073C5.667 6.16921 5.79869 5.85127 6.03312 5.61685Z" fill="currentColor"/></symbol>
	<symbol id="e-Plus" width="111" height="33" viewBox="0 0 111 33" fill="none" xmlns="http://www.w3.org/2000/svg"><g clip-path="url(#clip0_1_194)"><g clip-path="url(#clip1_1_194)"><path d="M94.804 11.0146V20.2711H93.0746V11.0146H94.804Z" fill="black"/><path d="M97.5114 13.2119V16.8833C97.5114 17.9464 98.0926 18.7686 99.2124 18.7686C100.276 18.7686 101.013 17.8756 101.013 16.7983V13.2119H102.742V20.257H101.183L101.069 19.3073C100.346 20.016 99.6802 20.3562 98.688 20.3562C97.0011 20.3562 95.782 19.0805 95.782 16.9117V13.2261L97.5114 13.2119Z" fill="black"/><path d="M108.469 15.0828C107.973 14.615 107.406 14.4591 106.725 14.4591C105.903 14.4591 105.45 14.7142 105.45 15.1536C105.45 15.5931 105.861 15.8624 106.768 15.9191C108.086 16.0042 109.773 16.3018 109.773 18.173C109.773 19.4204 108.767 20.4835 106.754 20.4835C105.648 20.4835 104.528 20.2993 103.508 19.2219L104.358 17.9887C104.854 18.5415 106.002 18.9526 106.782 18.9668C107.434 18.981 108.058 18.6408 108.058 18.1305C108.058 17.6485 107.661 17.45 106.669 17.3933C105.336 17.2941 103.763 16.8122 103.763 15.2103C103.763 13.5802 105.45 13.0132 106.725 13.0132C107.817 13.0132 108.653 13.2258 109.461 13.9346L108.469 15.0828Z" fill="black"/><path d="M26.3658 13.2117H28.0385L28.0243 20.2427H26.38L26.2949 19.222C25.898 20.0442 24.7923 20.4411 24.0127 20.4553C21.9289 20.4695 20.398 19.1795 20.398 16.713C20.398 14.289 22.014 13.0274 24.0694 13.0416C25.005 13.0416 25.9122 13.4811 26.3091 14.1898L26.3658 13.2117ZM22.1416 16.713C22.1416 18.0597 23.063 18.8535 24.2253 18.8535C26.9612 18.8535 26.9753 14.6009 24.2253 14.5867C23.0771 14.5867 22.1416 15.3805 22.1416 16.713Z" fill="black"/><path d="M34.9134 12.5312L36.1892 13.5093L35.4096 14.5016C35.9057 15.0828 36.175 15.8199 36.1467 16.5854C36.1467 17.4501 35.8207 18.6833 34.6583 19.2078C35.8207 19.789 36.1042 20.6395 36.1042 21.5325C36.1042 23.4745 34.6158 24.6653 32.5745 24.6653C30.5333 24.6653 29.0165 23.4178 29.0165 21.5184H30.7459C30.7459 22.4256 31.5823 23.0351 32.5887 23.0351C33.5952 23.0351 34.3748 22.4965 34.3748 21.5325C34.3748 20.5686 33.4676 20.115 32.5887 20.115C30.3915 20.115 29.0307 18.7684 29.0307 16.5712C29.0307 14.374 30.6325 13.0132 32.6029 13.0132C33.1557 13.0132 33.7227 13.0841 34.2189 13.4101L34.9134 12.5312ZM30.7601 16.5712C30.7601 17.7903 31.5823 18.5274 32.5887 18.5274C33.5952 18.5274 34.4173 17.7903 34.4173 16.5712C34.4173 15.3521 33.5952 14.5867 32.5887 14.5867C31.5823 14.5867 30.7601 15.338 30.7601 16.5712Z" fill="black"/><path d="M40.5836 10.1216H41.5333L43.6454 12.0919V12.177H41.8735L41.0513 11.3407L40.2292 12.177H38.4573V12.0919L40.5836 10.1216Z" fill="black"/><path d="M50.7047 20.413V16.7274C50.7047 15.6643 50.1235 14.8421 49.0037 14.8421C47.9406 14.8421 47.2034 15.7352 47.2034 16.8125V20.3988H45.4741L45.4882 13.1694H47.0475L47.1609 14.3176C47.8697 13.623 48.5926 13.2687 49.4715 13.2687C51.13 13.2687 52.4483 14.5161 52.4483 16.7274V20.413H50.7047Z" fill="black"/><path d="M59.862 19.4065C59.1532 20.1437 58.1751 20.5406 57.1545 20.5122C55.1132 20.5122 53.4264 19.279 53.4264 16.7841C53.4264 14.2893 55.1416 13.1694 57.1828 13.1694C58.1751 13.1694 58.9264 13.3537 59.706 14.1192L58.6004 15.2674C58.2176 14.913 57.7073 14.7145 57.1828 14.7145C56.0063 14.7145 55.1558 15.5651 55.1558 16.7983C55.1558 18.1449 56.063 18.8537 57.1403 18.8537C57.7073 18.8821 58.2743 18.6694 58.6854 18.2725L59.862 19.4065Z" fill="black"/><path d="M60.8684 13.1694L60.8542 20.4555H62.5977L62.6119 13.1836H60.8684V13.1694Z" fill="black"/><path d="M69.5294 13.1551H71.2021L71.1879 20.186H69.5436L69.4586 19.1512C69.0616 19.9734 67.956 20.3703 67.1763 20.3845C65.0926 20.3987 63.5616 19.1087 63.5616 16.6422C63.5616 14.2182 65.1776 12.9566 67.233 12.9708C68.1686 12.9708 69.0758 13.4103 69.4727 14.119L69.5294 13.1551ZM65.3052 16.6564C65.3052 18.003 66.2266 18.7969 67.389 18.7969C70.1248 18.7969 70.139 14.5443 67.389 14.5301C66.2266 14.5443 65.3052 15.3239 65.3052 16.6564Z" fill="black"/><path d="M62.7253 10.9297H60.7266V12.7299H62.7253V10.9297Z" fill="black"/><path d="M75.157 17.4642C75.2704 18.3289 76.206 18.9952 77.4392 18.9952C78.0771 18.9952 78.9276 18.7542 79.3245 18.3431L80.1042 19.2362C79.3671 20.0016 78.148 20.3702 77.0849 20.3702C74.6609 20.3702 73.2292 18.8676 73.2292 16.6137C73.2292 14.4733 74.7459 13.0699 77.0282 13.0841C79.3812 13.0841 80.9264 14.6008 80.657 17.4926L75.157 17.4642ZM78.8284 15.9475C78.715 15.0261 78.0063 14.4874 77.014 14.4874C76.0784 14.4874 75.2846 15.0261 75.0294 15.9333L78.8284 15.9475Z" fill="black"/><path d="M39.0101 17.5634C39.1235 18.4281 40.0591 19.0943 41.2923 19.0943C41.9302 19.0943 42.7807 18.8533 43.1776 18.4422L43.9573 19.3353C43.2202 20.1007 42.0011 20.4693 40.9379 20.4693C38.514 20.4693 37.0823 18.9667 37.0823 16.7129C37.0823 14.5724 38.599 13.169 40.8812 13.1832C43.2343 13.1832 44.7794 14.7 44.5101 17.5917L39.0101 17.5634ZM42.6815 16.0324C42.5681 15.1252 41.8735 14.5724 40.8671 14.5724C39.9315 14.5724 39.1519 15.111 38.8825 16.0183L42.6815 16.0324Z" fill="black"/><path d="M89.3323 15.7915C89.3323 15.7915 90.5513 15.3946 90.5513 14.1755C90.5513 12.9565 89.2472 12.7438 88.822 12.7438H84.3V10.901H88.822C88.822 10.901 92.3374 10.7451 92.3374 14.0763C92.3374 17.4075 89.3181 17.6343 89.3181 17.6343L89.3323 15.7915Z" fill="black"/><path d="M88.7511 15.8484H86.0295V13.311H84.3001V15.8484H81.4509V17.6487H84.3001V20.3703H86.0295V17.6487H88.7511V15.8484Z" fill="black"/><path d="M9.79493 11.0288L5.42896 13.552L9.82328 16.1461L14.2885 13.5945L9.79493 11.0288Z" fill="black"/><path d="M4.8761 19.7042L9.25625 22.2699V17.1243L4.8761 14.5869V19.7042Z" fill="black"/><path d="M10.4186 22.2415L14.8271 19.69V14.6011L10.4186 17.1526V22.2415Z" fill="black"/><path d="M9.83746 6.83301L1.19055 11.8227V21.8021L9.83746 26.7918L18.4844 21.8021V11.8227L9.83746 6.83301ZM15.9612 20.3846L10.4045 23.5882L9.82328 23.9142L3.69957 20.3562V13.9065V13.8781V13.2686L9.85163 9.72476L15.4225 12.9567L15.9612 13.2686V20.3846Z" fill="black"/></g></g><defs><clipPath id="clip0_1_194"><rect width="110" height="32" fill="white" transform="translate(0.609375 0.8125)"/></clipPath><clipPath id="clip1_1_194"><rect width="110" height="32" fill="white" transform="translate(0.609375 0.8125)"/></clipPath></defs></symbol>
	<symbol id="VTEX" width="76" height="31" viewBox="0 0 76 31" fill="none" xmlns="http://www.w3.org/2000/svg"><g clip-path="url(#clip0_1_185)"><g clip-path="url(#clip1_1_185)"><path d="M30.126 2.17285H6.30052C5.87806 2.17284 5.46277 2.28206 5.09498 2.48991C4.72718 2.69775 4.41937 2.99715 4.20143 3.35906C3.98349 3.72096 3.86283 4.13307 3.85116 4.55537C3.83948 4.97767 3.93719 5.39581 4.13481 5.7692L6.51771 10.2819H2.19707C1.9228 10.2815 1.65308 10.3521 1.41418 10.4869C1.17529 10.6216 0.975359 10.8159 0.833845 11.0509C0.692332 11.2858 0.614069 11.5534 0.606659 11.8276C0.599249 12.1018 0.662952 12.3732 0.791569 12.6154L8.45725 27.1238C8.59232 27.3791 8.79443 27.5927 9.04184 27.7417C9.28925 27.8907 9.5726 27.9694 9.86141 27.9694C10.1502 27.9694 10.4336 27.8907 10.681 27.7417C10.9284 27.5927 11.1305 27.3791 11.2656 27.1238L13.3478 23.2043L15.9596 28.1488C16.1676 28.5427 16.479 28.8725 16.8604 29.1028C17.2417 29.333 17.6786 29.4549 18.1241 29.4555C18.5696 29.4561 19.0068 29.3352 19.3888 29.1059C19.7707 28.8766 20.0829 28.5476 20.2919 28.1541L32.2342 5.68124C32.428 5.31746 32.5242 4.9097 32.5136 4.49767C32.5029 4.08565 32.3857 3.6834 32.1734 3.33012C31.9611 2.97684 31.661 2.68456 31.3022 2.48176C30.9434 2.27895 30.5381 2.17252 30.126 2.17285ZM19.424 11.7763L14.2749 21.4694C14.185 21.6392 14.0505 21.7813 13.8859 21.8804C13.7213 21.9795 13.5328 22.0319 13.3406 22.0319C13.1485 22.0319 12.96 21.9795 12.7954 21.8804C12.6307 21.7813 12.4962 21.6392 12.4063 21.4694L7.30664 11.8184C7.22127 11.6575 7.17894 11.4773 7.18374 11.2952C7.18854 11.1131 7.24031 10.9353 7.33404 10.7791C7.42777 10.6229 7.56026 10.4935 7.71868 10.4036C7.8771 10.3136 8.05608 10.2662 8.23825 10.2657H18.5166C18.6941 10.2657 18.8686 10.3117 19.0231 10.3991C19.1776 10.4865 19.3069 10.6124 19.3983 10.7645C19.4898 10.9167 19.5403 11.0899 19.5449 11.2673C19.5496 11.4448 19.5082 11.6204 19.4249 11.7772L19.424 11.7763Z" fill="black"/><path d="M55.4682 12.5974H52.8654V21.5295C52.8652 21.6108 52.8328 21.6887 52.7752 21.7462C52.7177 21.8038 52.6398 21.8362 52.5585 21.8364H50.5489C50.4676 21.8362 50.3896 21.8038 50.3321 21.7462C50.2746 21.6887 50.2422 21.6108 50.2419 21.5295V12.5974H47.6203C47.5809 12.5989 47.5415 12.5926 47.5046 12.5787C47.4676 12.5648 47.4338 12.5436 47.4052 12.5164C47.3766 12.4892 47.3537 12.4566 47.338 12.4204C47.3222 12.3842 47.3138 12.3452 47.3134 12.3057V10.7261C47.3138 10.6866 47.3222 10.6476 47.338 10.6114C47.3537 10.5752 47.3766 10.5426 47.4052 10.5154C47.4338 10.4882 47.4676 10.467 47.5046 10.4531C47.5415 10.4392 47.5809 10.4328 47.6203 10.4344H55.4709C55.5522 10.4307 55.6317 10.4593 55.692 10.5139C55.7524 10.5686 55.7887 10.6448 55.7931 10.7261V12.3066C55.7884 12.3882 55.7517 12.4646 55.6908 12.5192C55.6298 12.5737 55.5498 12.6018 55.4682 12.5974Z" fill="black"/><path d="M63.8349 21.773C62.8091 21.919 61.7736 21.9856 60.7375 21.9723C58.7585 21.9723 57.0092 21.4661 57.0092 18.6739V13.5778C57.0092 10.7856 58.7738 10.2947 60.7528 10.2947C61.7837 10.2811 62.8143 10.3477 63.8349 10.4939C64.0494 10.5245 64.1418 10.6017 64.1418 10.8009V12.2298C64.1416 12.3111 64.1091 12.389 64.0516 12.4465C63.9941 12.504 63.9163 12.5365 63.8349 12.5367H60.6038C59.8858 12.5367 59.6219 12.7817 59.6219 13.5805V14.9771H63.7164C63.7977 14.9773 63.8757 15.0097 63.9332 15.0672C63.9907 15.1247 64.0231 15.2027 64.0234 15.284V16.738C64.0231 16.8193 63.9907 16.8972 63.9332 16.9548C63.8757 17.0123 63.7977 17.0447 63.7164 17.0449H59.6219V18.6712C59.6219 19.4691 59.8822 19.715 60.6038 19.715H63.8349C63.9163 19.7153 63.9941 19.7477 64.0516 19.8052C64.1091 19.8627 64.1416 19.9407 64.1418 20.022V21.449C64.1418 21.6501 64.0494 21.7425 63.8349 21.773Z" fill="black"/><path d="M75.4119 21.8338H72.976C72.8942 21.84 72.8124 21.8215 72.7413 21.7805C72.6702 21.7395 72.6131 21.678 72.5776 21.604L70.463 18.2464L68.5468 21.5304C68.4391 21.7144 68.3323 21.8373 68.1645 21.8373H65.8938C65.8653 21.8412 65.8363 21.8389 65.8087 21.8306C65.7812 21.8224 65.7556 21.8084 65.7339 21.7895C65.7122 21.7707 65.6947 21.7475 65.6826 21.7213C65.6706 21.6952 65.6643 21.6668 65.664 21.6381C65.6669 21.6005 65.6773 21.5639 65.6945 21.5304L69.0153 15.9882L65.6577 10.7252C65.641 10.6979 65.6306 10.6673 65.6272 10.6355C65.6327 10.5791 65.6595 10.527 65.7022 10.49C65.745 10.4529 65.8004 10.4336 65.8569 10.4362H68.3269C68.4956 10.4362 68.6186 10.5897 68.7092 10.7279L70.6721 13.827L72.5722 10.7279C72.6061 10.651 72.659 10.5839 72.7258 10.5329C72.7927 10.4818 72.8713 10.4486 72.9545 10.4362H75.2252C75.2622 10.4284 75.3007 10.4318 75.3357 10.4459C75.3708 10.4601 75.401 10.4842 75.4223 10.5155C75.4436 10.5467 75.4552 10.5835 75.4556 10.6214C75.456 10.6592 75.4452 10.6962 75.4245 10.7279L72.083 16.0232L75.568 21.5331C75.5953 21.5799 75.611 21.6325 75.6138 21.6866C75.6111 21.7727 75.5349 21.8338 75.4119 21.8338Z" fill="black"/><path d="M43.6327 10.4652C43.5779 10.4654 43.525 10.4845 43.4827 10.5194C43.4405 10.5542 43.4117 10.6026 43.4011 10.6563L41.1744 18.8991C41.1439 19.0679 41.0981 19.1289 40.9598 19.1289C40.8216 19.1289 40.7758 19.0652 40.7453 18.8991L38.5159 10.6546C38.5054 10.6009 38.4765 10.5525 38.4343 10.5176C38.3921 10.4828 38.3391 10.4636 38.2844 10.4634H36.0926C36.057 10.4634 36.0217 10.4715 35.9896 10.487C35.9575 10.5025 35.9293 10.5251 35.9071 10.5531C35.8849 10.581 35.8693 10.6136 35.8615 10.6485C35.8537 10.6833 35.8539 10.7194 35.862 10.7542C35.862 10.7542 38.5824 20.2077 38.612 20.3001C38.7575 20.8056 39.0713 21.2461 39.5014 21.5489C39.9315 21.8516 40.452 21.9985 40.9769 21.965C41.4986 21.9856 42.0126 21.8341 42.4397 21.534C42.8669 21.2338 43.1835 20.8015 43.341 20.3037C43.3841 20.1763 46.0443 10.7542 46.0443 10.7542C46.0523 10.7195 46.0523 10.6834 46.0444 10.6487C46.0365 10.614 46.0209 10.5815 45.9987 10.5537C45.9766 10.5258 45.9484 10.5033 45.9164 10.4879C45.8843 10.4724 45.8492 10.4643 45.8136 10.4643L43.6327 10.4652Z" fill="black"/><path d="M30.126 2.17285H6.30052C5.87806 2.17284 5.46277 2.28206 5.09498 2.48991C4.72718 2.69775 4.41937 2.99715 4.20143 3.35906C3.98349 3.72096 3.86283 4.13307 3.85116 4.55537C3.83948 4.97767 3.93719 5.39581 4.13481 5.7692L6.51771 10.2819H2.19707C1.9228 10.2815 1.65308 10.3521 1.41418 10.4869C1.17529 10.6216 0.975359 10.8159 0.833845 11.0509C0.692332 11.2858 0.614069 11.5534 0.606659 11.8276C0.599249 12.1018 0.662952 12.3732 0.791569 12.6154L8.45725 27.1238C8.59232 27.3791 8.79443 27.5927 9.04184 27.7417C9.28925 27.8907 9.5726 27.9694 9.86141 27.9694C10.1502 27.9694 10.4336 27.8907 10.681 27.7417C10.9284 27.5927 11.1305 27.3791 11.2656 27.1238L13.3478 23.2043L15.9596 28.1488C16.1676 28.5427 16.479 28.8725 16.8604 29.1028C17.2417 29.333 17.6786 29.4549 18.1241 29.4555C18.5696 29.4561 19.0068 29.3352 19.3888 29.1059C19.7707 28.8766 20.0829 28.5476 20.2919 28.1541L32.2342 5.68124C32.428 5.31746 32.5242 4.9097 32.5136 4.49767C32.5029 4.08565 32.3857 3.6834 32.1734 3.33012C31.9611 2.97684 31.661 2.68456 31.3022 2.48176C30.9434 2.27895 30.5381 2.17252 30.126 2.17285ZM19.424 11.7763L14.2749 21.4694C14.185 21.6392 14.0505 21.7813 13.8859 21.8804C13.7213 21.9795 13.5328 22.0319 13.3406 22.0319C13.1485 22.0319 12.96 21.9795 12.7954 21.8804C12.6307 21.7813 12.4962 21.6392 12.4063 21.4694L7.30664 11.8184C7.22127 11.6575 7.17894 11.4773 7.18374 11.2952C7.18854 11.1131 7.24031 10.9353 7.33404 10.7791C7.42777 10.6229 7.56026 10.4935 7.71868 10.4036C7.8771 10.3136 8.05608 10.2662 8.23825 10.2657H18.5166C18.6941 10.2657 18.8686 10.3117 19.0231 10.3991C19.1776 10.4865 19.3069 10.6124 19.3983 10.7645C19.4898 10.9167 19.5403 11.0899 19.5449 11.2673C19.5496 11.4448 19.5082 11.6204 19.4249 11.7772L19.424 11.7763Z" fill="black"/></g></g><defs><clipPath id="clip0_1_185"><rect width="75" height="30" fill="white" transform="translate(0.609375 0.8125)"/></clipPath><clipPath id="clip1_1_185"><rect width="75" height="30" fill="white" transform="translate(0.609375 0.8125)"/></clipPath></defs></symbol>
	<symbol id="Logo" width="50" height="51" viewBox="0 0 50 51" fill="none" xmlns="http://www.w3.org/2000/svg"><path d="M25 0.28125C20.0555 0.28125 15.222 1.74747 11.1108 4.49451C6.99953 7.24155 3.79521 11.146 1.90302 15.7142C0.0108321 20.2823 -0.484251 25.309 0.480379 30.1585C1.44501 35.008 3.82603 39.4626 7.32234 42.9589C10.8187 46.4552 15.2732 48.8363 20.1228 49.8009C24.9723 50.7655 29.9989 50.2704 34.5671 48.3782C39.1352 46.486 43.0397 43.2817 45.7868 39.1705C48.5338 35.0593 50 30.2258 50 25.2813C49.9924 18.6532 47.356 12.2987 42.6693 7.61198C37.9825 2.92522 31.6281 0.288855 25 0.28125ZM25 47.3933C20.2294 47.3995 15.5856 45.8567 11.7673 42.9968L33.319 15.6979V33.5858H36.0632V11.445H22.9167C16.2787 11.445 12.615 14.5054 12.615 20.0657C12.615 24.7065 15.2586 27.5801 20.115 28.3991L15.6035 34.1462L9.85633 41.3301C6.12281 37.7914 3.73987 33.0618 3.11778 27.9555C2.49568 22.8491 3.67337 17.6857 6.44808 13.3541C9.22278 9.02257 13.4209 5.79393 18.3196 4.2241C23.2182 2.65427 28.511 2.84148 33.2865 4.7535C38.062 6.66552 42.0215 10.1827 44.4832 14.6995C46.9449 19.2163 47.7549 24.45 46.7735 29.4996C45.7922 34.5492 43.0811 39.0987 39.1068 42.3647C35.1326 45.6308 30.1441 47.409 25 47.3933ZM22.1264 25.8416C17.6581 25.6548 15.3879 23.7152 15.3879 20.0945C15.3879 16.129 17.8736 14.2037 22.9741 14.2037H31.3362L22.1264 25.8416Z" fill="currentColor" /></symbol>
	<symbol id="Arrow" width="9" height="6" viewBox="0 0 9 6" fill="none" xmlns="http://www.w3.org/2000/svg"><path d="M3.85186 0.924844L0.856233 3.92047C0.581858 4.19484 0.581858 4.64453 0.856233 4.91891L1.10623 5.16891C1.3803 5.44328 1.82998 5.44328 2.10436 5.16891L4.39061 2.88328L6.67655 5.16922C6.95092 5.44359 7.40061 5.44359 7.67467 5.16922L7.92467 4.91922C8.19936 4.64484 8.19936 4.19516 7.92467 3.92078L4.92873 0.925157C4.78155 0.777657 4.58405 0.712031 4.3903 0.722969C4.19686 0.711719 3.99936 0.777344 3.85186 0.924844Z" fill="#C0C0C0"/></symbol>
	<symbol id="Facebook" xmlns="http://www.w3.org/2000/svg" data-name="Layer 1" viewBox="0 0 24 24"><path d="M15.12,5.32H17V2.14A26.11,26.11,0,0,0,14.26,2C11.54,2,9.68,3.66,9.68,6.7V9.32H6.61v3.56H9.68V22h3.68V12.88h3.06l.46-3.56H13.36V7.05C13.36,6,13.64,5.32,15.12,5.32Z"/></symbol>
	<symbol id="Instagram" xmlns="http://www.w3.org/2000/svg" viewBox="0 0 32 32" xml:space="preserve"><path d="M4 32h24c2.258 0 4-1.742 4-4V4c0-2.259-1.742-4-4-4H4C1.741 0 0 1.741 0 4v24c0 2.258 1.741 4 4 4zM22 5a1 1 0 0 1 1-1h4a1 1 0 0 1 1 1v4a1 1 0 0 1-1 1h-4a1 1 0 0 1-1-1V5zm-5.977 4.714c3.549 0 6.425 2.787 6.425 6.226 0 3.437-2.876 6.226-6.425 6.226-3.546 0-6.423-2.789-6.423-6.226.001-3.439 2.878-6.226 6.423-6.226zM4 13l2.493.542a9.334 9.334 0 0 0-.413 2.745c0 5.318 4.454 9.634 9.943 9.634 5.492 0 9.944-4.315 9.944-9.634 0-.955-.145-1.875-.412-2.745L28 13v14c0 .701-.3 1-1 1H5c-.699 0-1-.299-1-1V13z"/></symbol>
	<symbol id="YouTube" xmlns="http://www.w3.org/2000/svg" data-name="Layer 1" viewBox="0 0 24 24"><path d="M23,9.71a8.5,8.5,0,0,0-.91-4.13,2.92,2.92,0,0,0-1.72-1A78.36,78.36,0,0,0,12,4.27a78.45,78.45,0,0,0-8.34.3,2.87,2.87,0,0,0-1.46.74c-.9.83-1,2.25-1.1,3.45a48.29,48.29,0,0,0,0,6.48,9.55,9.55,0,0,0,.3,2,3.14,3.14,0,0,0,.71,1.36,2.86,2.86,0,0,0,1.49.78,45.18,45.18,0,0,0,6.5.33c3.5.05,6.57,0,10.2-.28a2.88,2.88,0,0,0,1.53-.78,2.49,2.49,0,0,0,.61-1,10.58,10.58,0,0,0,.52-3.4C23,13.69,23,10.31,23,9.71ZM9.74,14.85V8.66l5.92,3.11C14,12.69,11.81,13.73,9.74,14.85Z"/></symbol>
	<symbol id="Location" xmlns="http://www.w3.org/2000/svg" fill="none" viewBox="0 0 24 24" stroke-width="1.5" stroke="currentColor" class="w-6 h-6">
		<path stroke-linecap="round" stroke-linejoin="round" d="M15 10.5a3 3 0 11-6 0 3 3 0 016 0z" />
		<path stroke-linecap="round" stroke-linejoin="round" d="M19.5 10.5c0 7.142-7.5 11.25-7.5 11.25S4.5 17.642 4.5 10.5a7.5 7.5 0 1115 0z" />
	</symbol>
	<symbol id="Pickup" xmlns="http://www.w3.org/2000/svg" fill="none" viewBox="0 0 24 24" stroke-width="1.5" stroke="currentColor" class="w-6 h-6">
		<path stroke-linecap="round" stroke-linejoin="round" d="M16.023 9.348h4.992v-.001M2.985 19.644v-4.992m0 0h4.992m-4.993 0l3.181 3.183a8.25 8.25 0 0013.803-3.7M4.031 9.865a8.25 8.25 0 0113.803-3.7l3.181 3.182m0-4.991v4.99" />
	</symbol>
	<symbol id="Scissors" xmlns="http://www.w3.org/2000/svg" fill="none" viewBox="0 0 24 24" stroke-width="1.5" stroke="currentColor" class="w-6 h-6">
		<path stroke-linecap="round" stroke-linejoin="round" d="M7.848 8.25l1.536.887M7.848 8.25a3 3 0 11-5.196-3 3 3 0 015.196 3zm1.536.887a2.165 2.165 0 011.083 1.839c.005.351.054.695.14 1.024M9.384 9.137l2.077 1.199M7.848 15.75l1.536-.887m-1.536.887a3 3 0 11-5.196 3 3 3 0 015.196-3zm1.536-.887a2.165 2.165 0 001.083-1.838c.005-.352.054-.695.14-1.025m-1.223 2.863l2.077-1.199m0-3.328a4.323 4.323 0 012.068-1.379l5.325-1.628a4.5 4.5 0 012.48-.044l.803.215-7.794 4.5m-2.882-1.664A4.331 4.331 0 0010.607 12m3.736 0l7.794 4.5-.802.215a4.5 4.5 0 01-2.48-.043l-5.326-1.629a4.324 4.324 0 01-2.068-1.379M14.343 12l-2.882 1.664" />
	</symbol>
	<symbol id="Return" xmlns="http://www.w3.org/2000/svg" fill="none" viewBox="0 0 24 24" stroke-width="1.5" stroke="currentColor" class="w-6 h-6">
		<path stroke-linecap="round" stroke-linejoin="round" d="M3 7.5L7.5 3m0 0L12 7.5M7.5 3v13.5m13.5 0L16.5 21m0 0L12 16.5m4.5 4.5V7.5" />
	</symbol>
	<symbol id="LogoHeader" xmlns="http://www.w3.org/2000/svg" viewBox="0 0 256.8 26.4"><defs></defs><g id="Layer_2" data-name="Layer 2"><g id="Layer_1-2" data-name="Layer 1"><path id="logo.svg" class="" d="M21.54.3,12.19,22.86,2.87.3H0L11,26h2.35L24.3.3ZM77,26,67.61,3.44,58.29,26H55.42L66.39.3h2.35l11,25.7H77ZM28.21.3V26h2.57V.3ZM183.94,26,193.3,3.44,202.62,26h2.87L194.51.3h-2.35l-11,25.7Zm51.32,0,9.35-22.56L253.93,26h2.87L245.83.3h-2.35L232.5,26h2.76ZM36,.3V26H52.57V23.52H38.52V.3Zm85.72,12.94a12.78,12.78,0,0,0,12.4,13.16h.58a13,13,0,0,0,13.05-13q0-.14,0-.28A12.78,12.78,0,0,0,135.3,0h-.58a13,13,0,0,0-13.05,13q0,.14,0,.28Zm23.35,0c0,6.17-4.43,10.82-10.3,10.82s-10.37-4.68-10.37-10.89,4.43-10.82,10.3-10.82S145,7,145,13.24ZM229.75,26V.3h-2.49V21.55L210.7.3h-2.47V26h2.49V4.28l17,21.73ZM115.42.32h-9.84C99.15.32,96,3.33,96,8.5c0,4.29,2.46,7,6.93,7.73l-4.18,5.32L95.26,26h3.08L115.4,4.46V26H118V.32h-2.56ZM98.53,8.5c0-3.68,2.14-5.64,7-5.64h7.76l-8.55,11C100.64,13.72,98.53,11.91,98.53,8.5ZM176.16.37,165,14.79,153.78.37h-2.47v25.7h2.49V4.34l16.83,21.72h3.08l-5.82-7.5-1.42-1.84,9.67-12.38V26.07h2.49V.37h-2.47Z"></path></g></g></symbol>





</svg>